<svg width="107" height="110" viewBox="0 0 107 110" fill="none" xmlns="http://www.w3.org/2000/svg">
<path d="M53.189 109.63C82.5645 109.63 106.378 85.0885 106.378 54.815C106.378 24.5415 82.5645 0 53.189 0C23.8135 0 0 24.5415 0 54.815C0 85.0885 23.8135 109.63 53.189 109.63Z" fill="#3753DA"/>
<path d="M53.189 104.77C82.5645 104.77 106.378 81.3164 106.378 52.385C106.378 23.4536 82.5645 0 53.189 0C23.8135 0 0 23.4536 0 52.385C0 81.3164 23.8135 104.77 53.189 104.77Z" fill="#5671F5"/>
<g filter="url(#filter0_i_2_2)">
<path d="M53.189 94.509C75.7399 94.509 94.021 76.133 94.021 53.465C94.021 30.797 75.7399 12.421 53.189 12.421C30.6381 12.421 12.357 30.797 12.357 53.465C12.357 76.133 30.6381 94.509 53.189 94.509Z" fill="white"/>
<path d="M69.054 42.838C68.7669 42.7242 68.4584 42.6744 68.15 42.692C67.733 42.722 67.395 42.893 67.195 43.173C66.018 44.839 65.054 47.983 64.276 50.51C63.919 51.679 63.44 53.243 63.093 53.985C62.731 51.905 63.14 44.288 63.299 41.355L63.301 41.308C63.411 39.27 63.426 38.912 63.401 38.755C63.227 37.637 62.783 36.903 62.082 36.575C61.374 36.242 60.453 36.389 59.462 36.992C58.965 37.295 58.827 38.337 58.401 43.059L58.399 43.079C58.164 45.674 57.623 51.647 56.958 52.642C56.208 51.25 55.174 43.342 54.728 39.92C54.416 37.523 54.234 36.146 54.112 35.73C53.855 34.86 52.769 34.119 51.694 34.077C50.799 34.033 50.065 34.492 49.714 35.291C49.059 36.027 49.291 38.47 50.016 44.255C50.36 47.009 51.072 52.696 50.624 53.335C49.731 53.236 48.197 49.674 46.065 42.743C45.467 40.801 45.282 40.218 45.098 39.963C44.736 39.072 43.505 38.385 42.402 38.463C42.309 38.4694 42.2165 38.4814 42.125 38.499C41.547 38.615 40.229 39.152 40.51 41.629C41.289 45.064 42.134 47.586 42.955 50.034L42.971 50.084C43.462 51.549 43.926 52.934 44.358 54.472C45.374 58.102 44.979 60.354 44.974 60.379C44.94 60.611 44.869 60.753 44.763 60.802C44.7177 60.8216 44.6693 60.8328 44.62 60.835C44.298 60.858 43.815 60.642 43.565 60.502C42.997 59.404 40.165 54.172 37.598 53.447L37.507 53.421L37.414 53.429C36.472 53.519 35.78 53.879 35.357 54.497C34.687 55.475 34.964 56.721 35.032 56.971L35.07 57.061C35.09 57.098 37.149 60.886 37.467 62.648C37.742 64.159 39.163 65.796 40.305 67.112L40.352 67.166C40.725 67.596 41.047 67.968 41.3 68.312C44.616 71.804 49.858 74.74 49.901 74.764C50.555 75.251 50.919 75.722 50.957 76.127C50.9752 76.2801 50.9332 76.4342 50.84 76.557L50.726 76.677L51.451 77.388L65.283 76.408L65.873 73.678C67.696 65.973 67.315 59.403 67.309 59.359C67.316 59.117 67.827 56.779 68.239 54.891L68.25 54.843C69.07 51.08 70.088 46.399 70.284 44.618C70.369 43.857 69.886 43.158 69.054 42.839V42.838Z"  fill="#3c4262"/>
</g>
<defs>
<filter id="filter0_i_2_2" x="12.357" y="12.421" width="81.664" height="83.088" filterUnits="userSpaceOnUse" color-interpolation-filters="sRGB">
<feFlood flood-opacity="0" result="BackgroundImageFix"/>
<feBlend mode="normal" in="SourceGraphic" in2="BackgroundImageFix" result="shape"/>
<feColorMatrix in="SourceAlpha" type="matrix" values="0 0 0 0 0 0 0 0 0 0 0 0 0 0 0 0 0 0 127 0" result="hardAlpha"/>
<feOffset dy="4"/>
<feGaussianBlur stdDeviation="0.5"/>
<feComposite in2="hardAlpha" operator="arithmetic" k2="-1" k3="1"/>
<feColorMatrix type="matrix" values="0 0 0 0 0 0 0 0 0 0 0 0 0 0 0 0 0 0 0.15 0"/>
<feBlend mode="normal" in2="shape" result="effect1_innerShadow_2_2"/>
</filter>
</defs>
</svg>
